<svg preserveAspectRatio="none" overflow="visible" viewBox="0 0 312 316" fill="none" xmlns="http://www.w3.org/2000/svg">
<g id="Illustration">
<path id="Vector" d="M160.785 168.056H102.153C101.924 168.056 101.706 167.966 101.545 167.805C101.384 167.644 101.294 167.426 101.294 167.2C101.294 166.973 101.384 166.754 101.545 166.594C101.706 166.433 101.924 166.343 102.153 166.343H160.785C161.014 166.343 161.232 166.433 161.393 166.594C161.554 166.754 161.644 166.972 161.644 167.2C161.644 167.428 161.554 167.644 161.393 167.805C161.232 167.966 161.014 168.056 160.785 168.056Z" fill="#064E3B"/>
<path id="Vector_2" d="M101.808 171.825C101.581 171.825 101.362 171.735 101.201 171.575C101.04 171.414 100.949 171.196 100.949 170.968C100.949 170.741 101.04 170.524 101.201 170.363C101.362 170.203 101.581 170.112 101.808 170.112L157.778 169.898C158.006 169.898 158.224 169.989 158.385 170.149C158.546 170.31 158.638 170.528 158.638 170.754C158.638 170.981 158.546 171.2 158.385 171.361C158.224 171.521 158.006 171.611 157.778 171.611L101.808 171.825Z" fill="#064E3B"/>
<path id="Vector_3" d="M100.949 178.465L97.041 5.76634C97.0261 5.19986 96.8975 4.6421 96.6615 4.12666C96.4243 3.61123 96.0859 3.14934 95.6664 2.76836C95.2456 2.40233 94.7549 2.1247 94.2218 1.95538C93.6899 1.78606 93.1293 1.72754 92.5737 1.78232L70.1521 3.79549C69.097 3.89385 68.1194 4.3931 67.424 5.19114C66.7285 5.98919 66.3664 7.02255 66.4151 8.07955L70.3668 104.022H68.6488L64.6971 8.07955C64.6359 6.58306 65.1553 5.12142 66.1479 3.99594C67.1393 2.8717 68.5277 2.17076 70.0235 2.04004L92.4026 0.0268638C93.203 -0.0503265 94.0108 0.0393138 94.7737 0.28956C95.5365 0.539806 96.2395 0.945677 96.8375 1.48103C97.4356 2.01638 97.915 2.67001 98.2459 3.40083C98.5768 4.1304 98.7516 4.92222 98.7603 5.72276L102.67 178.421L100.95 178.465H100.949Z" fill="#064E3B"/>
<path id="Vector_4" d="M310.824 277.921C310.596 277.921 310.377 277.83 310.216 277.669C310.055 277.509 309.965 277.291 309.965 277.063V6.06642C310.05 4.05325 306.012 3.45316 304.21 3.28259L283.892 3.62497H283.849C283.286 3.57766 282.719 3.64613 282.185 3.82666C281.651 4.00718 281.159 4.29478 280.739 4.67202C280.321 5.04925 279.984 5.50866 279.75 6.0216C279.517 6.53454 279.391 7.08857 279.382 7.65131L281.014 133.277L282.989 227.849C282.989 228.077 282.899 228.295 282.738 228.455C282.577 228.616 282.358 228.707 282.13 228.707C281.902 228.707 281.698 228.622 281.538 228.47C281.378 228.32 281.282 228.112 281.271 227.893L279.296 133.32L277.664 7.60774C277.668 6.80471 277.842 6.01289 278.176 5.28207C278.508 4.55125 278.992 3.89887 279.597 3.36725C280.807 2.32394 282.381 1.79979 283.978 1.9106L304.252 1.56822H304.294C310.566 2.12474 311.768 4.35205 311.683 6.10875V277.063C311.69 277.177 311.671 277.292 311.63 277.399C311.59 277.505 311.526 277.602 311.445 277.683C311.364 277.764 311.266 277.826 311.16 277.867C311.053 277.908 310.938 277.926 310.824 277.921Z" fill="#064E3B"/>
<path id="Vector_5" d="M136.989 180.863C136.414 180.884 135.84 180.855 135.271 180.778C135.05 180.746 134.85 180.63 134.714 180.453C134.578 180.277 134.515 180.056 134.54 179.835C134.55 179.723 134.584 179.616 134.638 179.518C134.691 179.42 134.765 179.335 134.854 179.266C134.942 179.198 135.045 179.148 135.153 179.121C135.262 179.093 135.374 179.088 135.485 179.107C135.657 179.107 147.254 180.306 157.435 170.326C163.276 164.63 167.528 156.449 170.192 145.955C173.457 132.805 174.143 116.015 172.254 96.0553C172.231 95.8287 172.299 95.6021 172.445 95.4253C172.59 95.2485 172.799 95.1365 173.027 95.1141C173.254 95.0917 173.483 95.1602 173.66 95.3046C173.837 95.449 173.95 95.6581 173.972 95.8847C175.905 116.059 175.175 133.063 171.825 146.383C169.118 157.22 164.651 165.657 158.595 171.569C150.046 179.921 140.768 180.863 136.989 180.863Z" fill="#064E3B"/>
<path id="Vector_6" d="M141.713 212.216C141.486 212.216 141.268 212.126 141.106 211.965C140.944 211.805 140.854 211.587 140.854 211.359C140.854 211.131 140.944 210.914 141.106 210.754C141.268 210.593 141.486 210.502 141.713 210.502C141.886 210.502 159.884 210.332 174.53 193.712C191.712 174.31 197.554 141.458 191.84 96.1412L191.541 91.3019L191.669 91.0877C200.604 75.5401 194.203 67.8734 194.16 67.7875C194.079 67.7078 194.017 67.6132 193.974 67.5086C193.933 67.404 193.913 67.2907 193.917 67.1787C193.922 67.0654 193.949 66.9546 193.998 66.8537C194.048 66.7516 194.118 66.662 194.204 66.5885C194.383 66.4404 194.611 66.3657 194.843 66.3819C195.075 66.3981 195.293 66.5026 195.449 66.6744C195.75 67.0168 202.708 75.1554 193.259 91.7314L193.516 96.0142C196.695 121.028 196.308 142.572 192.356 160.091C189.177 174.44 183.594 186.133 175.819 194.956C160.656 212.003 142.572 212.217 141.713 212.217V212.216Z" fill="#064E3B"/>
<path id="Vector_7" d="M69.4217 142.871H69.2494C68.9922 142.828 62.9354 141.501 61.0876 138.074C60.7629 137.464 60.5794 136.791 60.5494 136.102C60.5195 135.412 60.6456 134.725 60.9165 134.09C61.6469 132.291 62.7207 131.221 64.0953 130.964C66.9308 130.45 69.8512 133.406 70.1521 133.748C70.3069 133.921 70.3881 134.146 70.3806 134.378C70.3731 134.609 70.2757 134.829 70.1096 134.99C69.9436 135.141 69.7251 135.222 69.4991 135.213C69.2744 135.206 69.0609 135.11 68.906 134.947C68.2181 134.176 66.0281 132.335 64.4387 132.677C63.6658 132.805 63.0216 133.491 62.5484 134.69C62.3636 135.095 62.2724 135.536 62.2799 135.98C62.2874 136.425 62.3935 136.862 62.5921 137.26C63.8381 139.53 68.047 140.858 69.594 141.201C69.7026 141.22 69.805 141.263 69.8974 141.324C69.9885 141.385 70.0672 141.464 70.1271 141.555C70.187 141.647 70.2283 141.751 70.247 141.859C70.2657 141.967 70.2632 142.078 70.2382 142.185C70.207 142.378 70.1084 142.554 69.9586 142.68C69.8087 142.805 69.619 142.874 69.4229 142.871H69.4217Z" fill="#064E3B"/>
<path id="Vector_8" d="M78.4126 125.52C79.0918 125.409 79.5025 124.468 79.329 123.417C79.1567 122.366 78.4662 121.605 77.787 121.716C77.1078 121.827 76.697 122.768 76.8706 123.819C77.0429 124.868 77.7333 125.63 78.4126 125.52Z" fill="#064E3B"/>
<path id="Vector_9" d="M71.7839 120.856C71.5929 120.847 71.4056 120.792 71.2408 120.695C71.076 120.598 70.9374 120.462 70.8388 120.298C70.7127 120.047 70.6865 119.757 70.7664 119.486C70.8463 119.216 71.0261 118.986 71.2683 118.843L77.0241 115.631C77.1453 115.542 77.2838 115.48 77.4312 115.449C77.5785 115.418 77.7296 115.418 77.8769 115.449C78.0242 115.479 78.1628 115.541 78.2852 115.628C78.4063 115.716 78.5087 115.829 78.5848 115.958C78.6598 116.087 78.7072 116.231 78.7234 116.38C78.7397 116.529 78.7234 116.68 78.6785 116.822C78.6323 116.965 78.5574 117.097 78.4575 117.208C78.3576 117.32 78.2352 117.41 78.0979 117.472L72.2996 120.728C72.1423 120.814 71.9637 120.858 71.7839 120.856Z" fill="#064E3B"/>
<path id="Vector_10" d="M83.468 144.67H83.2532C80.8472 144.028 78.5711 140.644 78.3139 140.258C78.234 140.167 78.1741 140.059 78.1379 139.942C78.1029 139.826 78.0929 139.703 78.1091 139.582C78.1254 139.461 78.1666 139.345 78.2315 139.241C78.2964 139.137 78.3826 139.049 78.4837 138.982C78.5861 138.915 78.7009 138.869 78.8208 138.85C78.9419 138.83 79.0655 138.836 79.1829 138.867C79.3015 138.898 79.4114 138.956 79.505 139.033C79.5999 139.11 79.6761 139.207 79.7298 139.315C80.3316 140.216 82.1782 142.613 83.6815 143.043C83.8725 143.104 84.036 143.23 84.1434 143.399C84.2508 143.567 84.2957 143.769 84.2708 143.967C84.2458 144.165 84.1509 144.348 84.0048 144.485C83.8588 144.62 83.6677 144.701 83.468 144.713V144.67Z" fill="#064E3B"/>
<path id="Vector_11" d="M78.6573 157.52C77.2064 157.499 75.7693 157.237 74.4047 156.748C74.1887 156.68 74.0089 156.529 73.904 156.327C73.7991 156.127 73.7779 155.894 73.8466 155.677C73.9327 155.466 74.0938 155.291 74.2998 155.189C74.5058 155.087 74.7418 155.062 74.964 155.121C78.2715 156.192 80.9771 155.935 82.996 154.35C88.9666 149.638 87.8504 135.119 87.8504 134.99V134.262L88.5384 134.09C89.7844 133.79 91.2877 133.191 91.5024 132.163C91.8895 130.278 88.667 127.152 86.6056 125.609L86.3908 125.439L86.3047 125.225C84.1996 120.127 76.5971 109.976 76.511 109.891C76.4436 109.8 76.3936 109.698 76.3661 109.589C76.3387 109.48 76.3324 109.367 76.3474 109.255C76.3636 109.144 76.4011 109.037 76.4585 108.94C76.516 108.843 76.5921 108.758 76.682 108.691C76.7719 108.624 76.8756 108.575 76.9842 108.546C77.0941 108.519 77.2077 108.513 77.3188 108.529C77.4299 108.544 77.5385 108.583 77.6347 108.64C77.7321 108.697 77.817 108.773 77.8844 108.863C78.1853 109.291 85.4869 119.013 87.8067 124.368C88.9666 125.267 93.821 129.165 93.1755 132.463C92.8746 133.876 91.7147 134.947 89.6533 135.547C89.8256 138.673 90.0404 151.009 84.1122 155.677C82.5603 156.899 80.6337 157.55 78.6573 157.52Z" fill="#064E3B"/>
<path id="Vector_12" d="M67.3603 118.157C67.3603 118.157 86.2173 107.878 83.5116 94.4281C80.806 80.9783 74.5345 99.0545 67.3603 97.9402C60.1873 96.8272 40.5999 93.8716 43.1769 106.935C43.1769 106.935 26.3813 115.587 38.7533 134.004C48.3322 148.268 53.1429 156.106 54.8185 158.933C55.0245 159.287 55.3441 159.561 55.7274 159.709C56.1095 159.857 56.5315 159.871 56.9236 159.747C60.9614 158.591 72.4307 155.035 72.9026 151.866L70.0247 141.801C70.0247 141.801 60.3596 141.372 61.7343 134.39C63.1089 127.408 68.3067 133.234 68.3067 133.234C68.3067 133.234 73.9764 126.423 67.3615 118.157H67.3603Z" fill="#064E3B"/>
<path id="Vector_13" d="M57.3518 178.207C57.1658 178.211 56.9835 178.15 56.8362 178.036C56.6539 177.899 56.5328 177.696 56.5016 177.472C56.4691 177.247 56.5278 177.018 56.6651 176.836C61.2611 170.712 56.6227 160.09 56.579 159.961C56.5303 159.766 56.5515 159.559 56.6402 159.377C56.7288 159.197 56.8786 159.052 57.0634 158.972C57.2482 158.889 57.4555 158.874 57.6503 158.93C57.845 158.987 58.0123 159.109 58.126 159.275C58.3407 159.747 63.2376 170.926 58.0398 177.865C57.9574 177.969 57.8538 178.054 57.7352 178.112C57.6165 178.172 57.4854 178.204 57.3531 178.207H57.3518Z" fill="#064E3B"/>
<path id="Vector_14" d="M83.7689 179.878C83.5978 179.867 83.4343 179.807 83.2969 179.706C77.4986 175.937 77.4549 163.302 77.4549 162.788C77.4549 162.561 77.5448 162.343 77.7059 162.183C77.8669 162.022 78.0854 161.931 78.3139 161.931C78.4288 161.925 78.5424 161.944 78.6498 161.983C78.7572 162.025 78.8545 162.088 78.9345 162.169C79.0156 162.25 79.078 162.346 79.1192 162.453C79.1604 162.56 79.1779 162.674 79.1717 162.788C79.1717 162.916 79.2141 175.037 84.2396 178.293C84.4244 178.416 84.553 178.604 84.6017 178.82C84.6504 179.035 84.6129 179.26 84.498 179.45C84.4206 179.575 84.3132 179.68 84.1859 179.755C84.0585 179.829 83.9149 179.872 83.7676 179.878H83.7689Z" fill="#064E3B"/>
<path id="Vector_15" d="M153.01 168.356C152.758 167.433 152.155 166.643 151.328 166.157C150.503 165.668 149.519 165.52 148.585 165.743C135.57 168.871 90.1253 179.707 89.953 179.021C89.7807 178.336 87.7193 173.796 87.075 172.383C87.0076 172.255 86.909 172.145 86.7891 172.063C86.6693 171.981 86.5319 171.928 86.3871 171.911C82.2631 171.354 51.551 167.242 43.9485 171.526C43.76 171.633 43.6177 171.806 43.5465 172.011C43.4753 172.215 43.4803 172.439 43.5615 172.639L46.568 179.021C46.568 179.021 0.0941441 201.765 0.909453 236.159C1.72601 270.553 -1.49652 274.108 0.909453 276.292C1.42511 276.806 10.617 276.164 14.6973 276.292C15.2367 276.292 15.7548 276.503 16.1406 276.88C16.5264 277.256 16.7487 277.767 16.7599 278.305L17.8774 311.586C17.8974 312.117 18.1159 312.623 18.4892 313.002C18.8625 313.382 19.3644 313.61 19.8963 313.642L112.333 315.998C112.631 316.012 112.928 315.962 113.202 315.851C113.478 315.74 113.727 315.571 113.932 315.355C114.135 315.139 114.29 314.882 114.385 314.601C114.48 314.321 114.513 314.022 114.482 313.728C113.365 301.049 108.554 241.256 119.679 235.731C130.117 230.505 154.557 215.129 162.203 210.288C162.875 209.865 163.389 209.234 163.669 208.492C163.948 207.75 163.976 206.937 163.75 206.177L153.011 168.356H153.01Z" fill="#A7E203"/>
<path id="Vector_16" d="M170.621 90.8723L170.278 90.7864C169.934 90.6582 161.644 87.1024 159.84 79.9075C158.766 75.5811 160.227 70.956 164.263 66.073C164.42 65.9336 164.622 65.8539 164.832 65.8527C165.04 65.8502 165.244 65.9249 165.402 66.0618C165.561 66.1988 165.663 66.388 165.691 66.5959C165.719 66.8026 165.669 67.013 165.553 67.1873C161.945 71.5984 160.57 75.7106 161.472 79.4805C163.061 85.8624 170.88 89.1604 170.964 89.204C171.175 89.2899 171.343 89.4542 171.431 89.6634C171.52 89.8726 171.523 90.1079 171.438 90.317C171.367 90.4764 171.253 90.6121 171.108 90.7104C170.964 90.8088 170.796 90.8648 170.621 90.8735V90.8723Z" fill="#064E3B"/>
<path id="Vector_17" d="M167.4 70.4418C167.219 70.4356 167.045 70.3746 166.899 70.2675C166.754 70.1605 166.645 70.0123 166.583 69.843C166.369 69.1146 165.724 50.0549 168.775 45.3425C168.944 45.0126 169.187 44.725 169.485 44.5022C169.782 44.2793 170.127 44.1274 170.493 44.0577C170.779 44.0253 171.069 44.054 171.343 44.1423C171.618 44.2307 171.87 44.3777 172.082 44.5706C175.562 47.4827 176.377 66.1154 176.463 68.2568C176.469 68.3689 176.452 68.4822 176.415 68.588C176.377 68.6938 176.318 68.7922 176.242 68.8756C176.166 68.959 176.075 69.0275 175.973 69.0748C175.87 69.1234 175.76 69.1507 175.647 69.1557C175.416 69.1557 175.192 69.0673 175.024 68.908C174.856 68.7486 174.756 68.5307 174.745 68.2992C174.444 60.6324 173.156 47.6968 170.965 45.8555L170.75 45.7696C170.621 45.7696 170.45 45.9414 170.278 46.1555C167.657 49.8395 168.002 68.1286 168.216 69.3699C168.255 69.4732 168.273 69.584 168.265 69.6948C168.258 69.8056 168.226 69.9139 168.174 70.0111C168.12 70.1082 168.047 70.1941 167.958 70.2601C167.869 70.3273 167.767 70.3733 167.657 70.397L167.4 70.4393V70.4418Z" fill="#064E3B"/>
<path id="Vector_18" d="M190.939 72.4551H190.853C190.739 72.4439 190.631 72.4115 190.529 72.358C190.43 72.3045 190.341 72.2323 190.27 72.1451C190.197 72.058 190.144 71.9559 190.111 71.8476C190.079 71.7392 190.067 71.6247 190.08 71.5127C190.853 63.8459 189.478 61.7892 188.533 61.2762C187.588 60.762 185.526 61.7904 185.526 61.7904C185.344 61.9274 185.116 61.9859 184.89 61.9535C184.664 61.9211 184.46 61.8016 184.324 61.6198C184.207 61.4318 184.159 61.209 184.19 60.9886C184.222 60.7683 184.33 60.5678 184.495 60.4197C184.625 60.3338 187.158 58.4924 189.392 59.7772C191.626 61.0621 192.485 65.0025 191.798 71.6845C191.777 71.8961 191.677 72.0928 191.518 72.236C191.358 72.3779 191.152 72.4564 190.939 72.4564V72.4551Z" fill="#064E3B"/>
<path id="Vector_19" d="M17.5328 273.851C17.3255 273.853 17.1245 273.781 16.9672 273.647C16.8086 273.513 16.705 273.327 16.6738 273.122C15.2604 262.891 14.5999 252.569 14.6985 242.241C14.9557 220.268 19.2083 205.748 27.3702 199.023C27.5475 198.883 27.7722 198.817 27.9982 198.84C28.2229 198.865 28.4302 198.977 28.5725 199.152C28.6487 199.236 28.7061 199.337 28.7398 199.444C28.7748 199.553 28.786 199.667 28.7748 199.78C28.7623 199.894 28.7274 200.002 28.6699 200.1C28.6125 200.199 28.5363 200.285 28.4439 200.352C9.93029 215.599 18.2632 272.309 18.3493 272.866C18.3868 273.088 18.3356 273.314 18.207 273.498C18.0784 273.683 17.8824 273.81 17.6614 273.851H17.5328Z" fill="#064E3B"/>
<path id="Vector_20" d="M102.324 239.5L101.98 239.414C90.812 234.531 85.0998 224.38 85.357 210.032C85.5593 203.148 86.8503 196.34 89.1801 189.858C89.2176 189.756 89.2763 189.661 89.3512 189.583C89.4261 189.503 89.516 189.439 89.6171 189.395C89.717 189.351 89.8256 189.327 89.9343 189.326C90.0441 189.325 90.1527 189.345 90.2539 189.386C90.3625 189.424 90.4611 189.484 90.546 189.561C90.631 189.639 90.6996 189.731 90.7471 189.835C90.7958 189.939 90.822 190.051 90.8257 190.165C90.8295 190.28 90.8107 190.393 90.7695 190.5C88.5434 196.814 87.2973 203.428 87.0751 210.118C86.8179 223.866 92.058 233.204 102.668 237.829C102.882 237.924 103.05 238.097 103.138 238.312C103.226 238.529 103.226 238.769 103.14 238.986C103.063 239.136 102.947 239.264 102.803 239.354C102.66 239.445 102.494 239.495 102.324 239.5Z" fill="#064E3B"/>
<path id="Vector_21" d="M55.2892 184.418C55.0995 184.422 54.9147 184.36 54.7648 184.243C54.6163 184.126 54.5126 183.96 54.4727 183.776C54.4177 183.554 54.4502 183.32 54.5613 183.122C54.6724 182.923 54.856 182.774 55.0732 182.705C63.4498 180.648 78.4837 182.619 79.128 182.705C79.3565 182.733 79.5625 182.851 79.7036 183.031C79.8447 183.212 79.9083 183.441 79.8796 183.669C79.8509 183.895 79.7335 184.102 79.5525 184.243C79.3715 184.383 79.1417 184.447 78.9132 184.418C78.7409 184.375 63.536 182.362 55.5027 184.375L55.288 184.418H55.2892Z" fill="#064E3B"/>
<path id="Vector_22" d="M43.8212 130.064C43.5815 130.064 43.3505 129.972 43.1769 129.807C36.2187 122.141 43.0483 112.631 43.1345 112.547C43.2718 112.366 43.4716 112.245 43.6939 112.206C43.9161 112.166 44.1458 112.211 44.3369 112.333C44.5191 112.468 44.6403 112.671 44.6715 112.897C44.7039 113.121 44.6453 113.35 44.5079 113.531C44.2507 113.916 38.4511 122.055 44.4655 128.651C44.6178 128.816 44.6977 129.036 44.6902 129.26C44.6815 129.484 44.5866 129.695 44.423 129.85C44.3419 129.924 44.247 129.982 44.1446 130.018C44.0409 130.055 43.9311 130.071 43.8225 130.064H43.8212Z" fill="#ffffff"/>
<path id="Vector_23" d="M51.6809 141.757C51.5373 141.756 51.3962 141.72 51.2689 141.654C51.1415 141.586 51.0329 141.489 50.9505 141.372L47.6855 136.232C47.5681 136.037 47.5294 135.805 47.5781 135.582C47.6256 135.359 47.7567 135.163 47.9439 135.033C48.0426 134.972 48.1512 134.931 48.2661 134.912C48.3809 134.895 48.4971 134.899 48.6094 134.927C48.7218 134.956 48.8267 135.005 48.9191 135.075C49.0115 135.145 49.0889 135.233 49.1463 135.333L52.4113 140.43C52.5287 140.625 52.5674 140.857 52.5187 141.08C52.47 141.303 52.3401 141.499 52.1528 141.629C52.0118 141.717 51.8469 141.762 51.6809 141.757Z" fill="#ffffff"/>
<path id="Vector_24" d="M51.0379 178.207C50.8656 178.215 50.6958 178.163 50.5547 178.063C50.4149 177.961 50.3125 177.816 50.265 177.651L48.5033 172.682C48.4758 172.486 48.517 172.287 48.6207 172.118C48.7243 171.948 48.8829 171.82 49.0702 171.754C49.2574 171.689 49.4622 171.689 49.6482 171.758C49.8343 171.825 49.9928 171.955 50.094 172.125L51.8557 177.05C51.8969 177.157 51.9156 177.272 51.9119 177.385C51.9081 177.5 51.8819 177.612 51.8332 177.717C51.7858 177.82 51.7171 177.913 51.6322 177.99C51.5473 178.068 51.4487 178.126 51.34 178.165L51.0391 178.207H51.0379Z" fill="#064E3B"/>
<path id="Vector_25" d="M57.3519 179.278C57.1409 179.27 56.9398 179.189 56.7825 179.049C56.6252 178.907 56.5228 178.716 56.4929 178.507L55.5901 171.526C55.6014 171.326 55.6825 171.137 55.8199 170.991C55.9572 170.844 56.1408 170.751 56.3393 170.725C56.5378 170.7 56.7401 170.744 56.9086 170.852C57.0772 170.959 57.2045 171.122 57.2657 171.312L58.2109 178.293C58.2371 178.52 58.1759 178.746 58.0398 178.929C57.905 179.112 57.7052 179.237 57.4805 179.278H57.3519Z" fill="#064E3B"/>
<path id="Vector_26" d="M64.2239 179.278C64.0104 179.279 63.8044 179.2 63.6446 179.058C63.486 178.915 63.3861 178.719 63.3649 178.507L62.7206 171.483C62.7082 171.257 62.7793 171.036 62.9229 170.861C63.0665 170.687 63.27 170.573 63.4935 170.54C63.6059 170.535 63.7195 170.551 63.8256 170.589C63.9317 170.626 64.0304 170.685 64.114 170.761C64.1977 170.836 64.2664 170.927 64.3138 171.029C64.3625 171.132 64.39 171.241 64.395 171.354L65.0829 178.336C65.0942 178.448 65.0829 178.562 65.0517 178.67C65.0192 178.78 64.9655 178.88 64.8931 178.968C64.8207 179.055 64.7321 179.128 64.6322 179.182C64.5323 179.234 64.4224 179.268 64.3088 179.278H64.2227H64.2239Z" fill="#064E3B"/>
<path id="Vector_27" d="M72.2127 182.205H72.0841C71.973 182.195 71.8643 182.162 71.7657 182.108C71.6671 182.055 71.5822 181.981 71.5135 181.893C71.4448 181.804 71.3949 181.702 71.3687 181.594C71.3412 181.486 71.3362 181.374 71.3549 181.263L72.4287 172.739C72.4449 172.626 72.4824 172.518 72.541 172.42C72.5997 172.321 72.6771 172.235 72.7695 172.168C72.8619 172.1 72.9668 172.051 73.0779 172.025C73.1891 171.997 73.3052 171.992 73.4175 172.011C73.5287 172.021 73.6373 172.055 73.7359 172.108C73.8346 172.162 73.9195 172.235 73.9881 172.324C74.0568 172.412 74.1067 172.514 74.133 172.622C74.1604 172.731 74.1654 172.843 74.1467 172.954L73.0729 181.477C73.0342 181.677 72.9281 181.859 72.772 181.991C72.616 182.124 72.4187 182.199 72.2139 182.205H72.2127Z" fill="#064E3B"/>
<path id="Vector_28" d="M81.7062 181.977H81.5339C81.4216 181.957 81.3129 181.913 81.2181 181.85C81.1232 181.786 81.042 181.703 80.9808 181.606C80.9197 181.509 80.8809 181.4 80.8647 181.287C80.8485 181.174 80.8572 181.058 80.8897 180.948L82.6077 173.41C82.6676 173.195 82.8075 173.009 82.9985 172.89C83.1895 172.771 83.418 172.728 83.639 172.768C83.7489 172.792 83.8525 172.84 83.9449 172.904C84.0373 172.97 84.1147 173.053 84.1746 173.148C84.2346 173.244 84.2745 173.35 84.2933 173.461C84.312 173.572 84.3082 173.686 84.2833 173.796L82.5653 181.334C82.5166 181.522 82.4054 181.689 82.2481 181.805C82.0921 181.922 81.901 181.983 81.705 181.977H81.7062Z" fill="#064E3B"/>
<path id="Vector_29" d="M10.7893 306.232C10.5871 306.233 10.391 306.158 10.2412 306.024C10.0901 305.89 9.99523 305.704 9.97401 305.504L6.27952 282.032C6.24206 281.916 6.22833 281.792 6.24206 281.67C6.2558 281.548 6.29575 281.431 6.35818 281.327C6.42186 281.221 6.50551 281.131 6.60664 281.062C6.70778 280.992 6.82264 280.945 6.94375 280.923C7.06486 280.901 7.18847 280.906 7.30709 280.936C7.4257 280.967 7.53682 281.022 7.63296 281.098C7.7291 281.175 7.80651 281.271 7.86269 281.38C7.91763 281.49 7.94884 281.609 7.95384 281.731L11.6483 305.247C11.6671 305.359 11.6621 305.475 11.6346 305.586C11.6071 305.697 11.5584 305.801 11.491 305.892C11.4236 305.984 11.3374 306.061 11.2388 306.12C11.1402 306.178 11.0315 306.216 10.9179 306.232H10.7893Z" fill="#064E3B"/>
<path id="Vector_30" d="M99.1886 50.0536C98.9613 50.0536 98.7428 49.964 98.5818 49.8034C98.4195 49.6428 98.3296 49.4249 98.3296 49.1971C98.3296 48.9692 98.4195 48.7526 98.5818 48.5908C98.7428 48.4301 98.9613 48.3393 99.1886 48.3393L167.958 47.4404C168.069 47.4341 168.18 47.4516 168.284 47.4902C168.387 47.5288 168.482 47.5873 168.564 47.6632C168.643 47.7392 168.707 47.8313 168.751 47.9321C168.795 48.0342 168.817 48.1438 168.817 48.2534C168.808 48.4812 168.716 48.6991 168.557 48.8647C168.4 49.0302 168.186 49.1323 167.958 49.1535L99.1886 50.0524V50.0536Z" fill="#064E3B"/>
<path id="Vector_31" d="M99.1886 54.38C98.9613 54.38 98.7428 54.2904 98.5818 54.1285C98.4195 53.9679 98.3296 53.7501 98.3296 53.5235C98.3296 53.2969 98.4195 53.0777 98.5818 52.9171C98.7428 52.7565 98.9613 52.6657 99.1886 52.6657L161.558 51.9797C161.79 51.9797 162.014 52.0681 162.181 52.2274C162.349 52.3868 162.449 52.6046 162.461 52.8362C162.461 53.0641 162.369 53.2819 162.208 53.4413C162.047 53.6019 161.829 53.6928 161.602 53.6928L99.1886 54.3775V54.38Z" fill="#064E3B"/>
<path id="Vector_32" d="M100.993 110.233C100.765 110.233 100.547 110.143 100.386 109.982C100.225 109.821 100.134 109.603 100.134 109.377C100.134 109.15 100.225 108.931 100.386 108.771C100.547 108.61 100.765 108.52 100.993 108.52L173.07 107.578H173.113C173.223 107.572 173.334 107.588 173.438 107.626C173.543 107.665 173.638 107.724 173.718 107.801C173.799 107.877 173.862 107.968 173.906 108.07C173.95 108.172 173.972 108.281 173.972 108.391C173.962 108.62 173.87 108.837 173.713 109.002C173.554 109.168 173.341 109.27 173.113 109.291L101.035 110.233H100.993Z" fill="#064E3B"/>
<path id="Vector_33" d="M106.147 114.216C105.927 114.217 105.715 114.133 105.555 113.981C105.395 113.829 105.299 113.622 105.288 113.403C105.298 113.174 105.39 112.958 105.548 112.792C105.706 112.626 105.92 112.524 106.147 112.503L173.457 111.861C173.684 111.861 173.902 111.952 174.063 112.112C174.225 112.273 174.316 112.491 174.316 112.717C174.316 112.944 174.225 113.163 174.063 113.324C173.902 113.484 173.684 113.574 173.457 113.574L106.191 114.216H106.147Z" fill="#064E3B"/>
<path id="Vector_34" d="M193.903 108.434C193.675 108.434 193.456 108.343 193.295 108.183C193.134 108.022 193.044 107.804 193.044 107.578C193.044 107.351 193.134 107.132 193.295 106.971C193.456 106.811 193.675 106.721 193.903 106.721L279.768 105.565H279.811C280.039 105.565 280.257 105.654 280.418 105.815C280.579 105.975 280.67 106.193 280.67 106.421C280.67 106.649 280.579 106.866 280.418 107.026C280.257 107.187 280.039 107.278 279.811 107.278L193.903 108.434Z" fill="#064E3B"/>
<path id="Vector_35" d="M199.788 112.161C199.559 112.161 199.341 112.07 199.179 111.909C199.018 111.749 198.929 111.531 198.929 111.304C198.929 111.078 199.018 110.858 199.179 110.698C199.341 110.537 199.559 110.448 199.788 110.448L278.523 110.19C278.75 110.19 278.969 110.281 279.13 110.441C279.291 110.602 279.382 110.82 279.382 111.048C279.382 111.276 279.291 111.492 279.13 111.653C278.969 111.813 278.75 111.904 278.523 111.904L199.788 112.161Z" fill="#064E3B"/>
<path id="Vector_36" d="M278.522 49.1547H173.112C172.885 49.1547 172.666 49.0638 172.505 48.9032C172.344 48.7426 172.253 48.5247 172.253 48.2969C172.253 48.069 172.344 47.8524 172.505 47.6918C172.666 47.5312 172.885 47.4403 173.112 47.4403H278.522C278.75 47.4403 278.969 47.5312 279.13 47.6918C279.291 47.8524 279.381 48.0703 279.381 48.2969C279.381 48.5235 279.291 48.7426 279.13 48.9032C278.969 49.0638 278.75 49.1547 278.522 49.1547Z" fill="#064E3B"/>
<path id="Vector_37" d="M278.522 52.7952H173.972C173.744 52.7952 173.525 52.7043 173.364 52.5437C173.203 52.3831 173.112 52.1652 173.112 51.9386C173.112 51.712 173.203 51.4929 173.364 51.3323C173.525 51.1717 173.744 51.0808 173.972 51.0808H278.522C278.75 51.0808 278.969 51.1717 279.13 51.3323C279.291 51.4929 279.382 51.7108 279.382 51.9386C279.382 52.1664 279.291 52.3831 279.13 52.5437C278.969 52.7043 278.75 52.7952 278.522 52.7952Z" fill="#064E3B"/>
<path id="Vector_38" d="M190.681 167.585C190.453 167.585 190.235 167.495 190.074 167.334C189.913 167.174 189.822 166.956 189.822 166.728C189.817 166.618 189.833 166.508 189.871 166.404C189.91 166.3 189.969 166.205 190.045 166.125C190.121 166.044 190.214 165.981 190.316 165.937C190.417 165.894 190.527 165.871 190.638 165.871L279.982 164.672H280.026C280.25 164.682 280.463 164.777 280.622 164.935C280.78 165.093 280.874 165.305 280.885 165.529C280.885 165.756 280.794 165.973 280.633 166.135C280.472 166.296 280.253 166.386 280.026 166.386L190.681 167.585Z" fill="#064E3B"/>
<path id="Vector_39" d="M189.478 171.355C189.251 171.355 189.032 171.264 188.871 171.103C188.71 170.942 188.619 170.725 188.619 170.498C188.619 170.271 188.71 170.052 188.871 169.892C189.032 169.731 189.251 169.641 189.478 169.641L280.026 169.341C280.253 169.341 280.472 169.431 280.633 169.592C280.794 169.752 280.885 169.97 280.885 170.198C280.885 170.426 280.794 170.642 280.633 170.803C280.472 170.964 280.253 171.054 280.026 171.054L189.478 171.355Z" fill="#064E3B"/>
<path id="Vector_40" d="M186 31.6799H183.078C180.374 31.6799 178.181 33.8661 178.181 36.5628V54.4747C178.181 57.1714 180.374 59.3576 183.078 59.3576H186C188.704 59.3576 190.897 57.1714 190.897 54.4747V36.5628C190.897 33.8661 188.704 31.6799 186 31.6799Z" fill="#A7E203"/>
<path id="Vector_41" d="M151.463 32.707H147.726C145.022 32.707 142.829 34.8933 142.829 37.5899V53.9991C142.829 56.6958 145.022 58.882 147.726 58.882H151.463C154.168 58.882 156.36 56.6958 156.36 53.9991V37.5899C156.36 34.8933 154.168 32.707 151.463 32.707Z" fill="#A7E203"/>
<path id="Vector_42" d="M136.387 32.707H132.65C129.946 32.707 127.753 34.8933 127.753 37.5899V53.9991C127.753 56.6958 129.946 58.882 132.65 58.882H136.387C139.091 58.882 141.284 56.6958 141.284 53.9991V37.5899C141.284 34.8933 139.091 32.707 136.387 32.707Z" fill="#A7E203"/>
<path id="Vector_43" d="M216.154 32.4506H212.415C209.711 32.4506 207.52 34.6368 207.52 37.3335V54.4922C207.52 57.1889 209.711 59.3751 212.415 59.3751H216.154C218.858 59.3751 221.049 57.1889 221.049 54.4922V37.3335C221.049 34.6368 218.858 32.4506 216.154 32.4506Z" fill="#064E3B"/>
<path id="Vector_44" d="M201.034 32.0222H197.297C194.591 32.0222 192.4 34.2085 192.4 36.9052V54.7535C192.4 57.4502 194.591 59.6364 197.297 59.6364H201.034C203.738 59.6364 205.93 57.4502 205.93 54.7535V36.9052C205.93 34.2085 203.738 32.0222 201.034 32.0222Z" fill="#A7E203"/>
<path id="Vector_45" d="M131.49 50.0973C131.375 50.1035 131.262 50.0861 131.154 50.045C131.047 50.0039 130.949 49.9416 130.869 49.8607C130.788 49.7798 130.725 49.6827 130.683 49.5769C130.642 49.4698 130.625 49.3565 130.631 49.242V35.8781C130.625 35.7635 130.642 35.6502 130.683 35.5432C130.725 35.4361 130.788 35.339 130.869 35.2581C130.949 35.1771 131.047 35.1149 131.154 35.0738C131.262 35.0327 131.375 35.0153 131.49 35.0215C131.719 35.0215 131.937 35.1112 132.098 35.273C132.259 35.4336 132.349 35.6515 132.349 35.8781V49.242C132.349 49.4698 132.259 49.6877 132.098 49.8483C131.937 50.0089 131.719 50.0998 131.49 50.0998V50.0973Z" fill="#ffffff"/>
<path id="Vector_46" d="M195.535 55.7931C195.42 55.7993 195.306 55.7819 195.199 55.7408C195.092 55.6997 194.994 55.6375 194.913 55.5565C194.832 55.4756 194.77 55.3785 194.728 55.2727C194.687 55.1656 194.67 55.0523 194.676 54.9378V44.9155C194.676 44.6877 194.766 44.4698 194.927 44.3092C195.088 44.1486 195.306 44.0577 195.535 44.0577C195.763 44.0577 195.981 44.1486 196.142 44.3092C196.303 44.4698 196.394 44.6877 196.394 44.9155V54.9378C196.4 55.0523 196.381 55.1656 196.341 55.2727C196.3 55.3798 196.237 55.4769 196.155 55.5565C196.076 55.6375 195.978 55.6997 195.871 55.7408C195.763 55.7819 195.65 55.7993 195.535 55.7931Z" fill="#ffffff"/>
<path id="Vector_47" d="M213.404 91.8149H210.483C207.778 91.8149 205.586 94.0011 205.586 96.6978V114.611C205.586 117.308 207.778 119.494 210.483 119.494H213.404C216.109 119.494 218.301 117.308 218.301 114.611V96.6978C218.301 94.0011 216.109 91.8149 213.404 91.8149Z" fill="#A7E203"/>
<path id="Vector_48" d="M243.558 92.9715H239.821C237.116 92.9715 234.925 95.1577 234.925 97.8544V114.683C234.925 117.38 237.116 119.566 239.821 119.566H243.558C246.263 119.566 248.454 117.38 248.454 114.683V97.8544C248.454 95.1577 246.263 92.9715 243.558 92.9715Z" fill="#A7E203"/>
<path id="Vector_49" d="M228.438 92.5867H224.701C221.997 92.5867 219.804 94.7729 219.804 97.4696V114.722C219.804 117.418 221.997 119.605 224.701 119.605H228.438C231.143 119.605 233.335 117.418 233.335 114.722V97.4696C233.335 94.7729 231.143 92.5867 228.438 92.5867Z" fill="#A7E203"/>
<path id="Vector_50" d="M209.108 109.591C208.881 109.591 208.662 109.5 208.501 109.339C208.34 109.179 208.249 108.961 208.249 108.734V95.3705C208.249 95.1439 208.34 94.9248 208.501 94.7654C208.662 94.6048 208.881 94.514 209.108 94.514C209.223 94.5077 209.338 94.5252 209.445 94.5663C209.551 94.6073 209.649 94.6696 209.73 94.7505C209.811 94.8314 209.873 94.9285 209.915 95.0344C209.956 95.1414 209.973 95.2547 209.968 95.3693V108.733C209.973 108.846 209.956 108.961 209.915 109.068C209.873 109.174 209.811 109.271 209.73 109.352C209.649 109.433 209.551 109.496 209.445 109.536C209.338 109.577 209.223 109.596 209.108 109.59V109.591Z" fill="#ffffff"/>
<path id="Vector_51" d="M238.06 113.574C237.831 113.574 237.613 113.484 237.452 113.324C237.291 113.163 237.201 112.945 237.201 112.717V97.8545C237.201 97.6279 237.291 97.41 237.452 97.2494C237.613 97.0888 237.831 96.9979 238.06 96.9979C238.288 96.9979 238.505 97.0888 238.666 97.2494C238.827 97.41 238.919 97.6279 238.919 97.8545V112.717C238.919 112.829 238.896 112.941 238.854 113.045C238.81 113.149 238.746 113.244 238.666 113.324C238.588 113.403 238.493 113.466 238.388 113.509C238.284 113.551 238.172 113.574 238.06 113.574Z" fill="#ffffff"/>
<path id="Vector_52" d="M257.818 92.4573H254.898C252.193 92.4573 250.001 94.6435 250.001 97.339V114.712C250.001 117.408 252.193 119.595 254.898 119.595H257.818C260.522 119.595 262.715 117.408 262.715 114.712V97.339C262.715 94.6423 260.522 92.4573 257.818 92.4573Z" fill="#064E3B"/>
<path id="Vector_53" d="M266.022 153.108H262.285C259.581 153.108 257.389 155.294 257.389 157.991V174.73C257.389 177.426 259.581 179.613 262.285 179.613H266.022C268.727 179.613 270.919 177.426 270.919 174.73V157.991C270.919 155.294 268.727 153.108 266.022 153.108Z" fill="#A7E203"/>
<path id="Vector_54" d="M235.783 152.251H232.862C230.157 152.251 227.965 154.437 227.965 157.134V175.046C227.965 177.743 230.157 179.929 232.862 179.929H235.783C238.488 179.929 240.68 177.743 240.68 175.046V157.134C240.68 154.437 238.488 152.251 235.783 152.251Z" fill="#064E3B"/>
<path id="Vector_55" d="M250.86 152.465H247.123C244.419 152.465 242.226 154.651 242.226 157.348V175.06C242.226 177.756 244.419 179.942 247.123 179.942H250.86C253.564 179.942 255.757 177.756 255.757 175.06V157.348C255.757 154.651 253.564 152.465 250.86 152.465Z" fill="#064E3B"/>
<path id="Vector_56" d="M182.606 69.7135C182.378 69.6923 182.164 69.5903 182.007 69.4247C181.848 69.2591 181.756 69.0424 181.747 68.8134C181.876 64.3587 181.017 61.2325 179.212 59.7336C178.741 59.3563 178.195 59.0812 177.611 58.9268C177.026 58.7724 176.416 58.74 175.819 58.8347C175.592 58.8733 175.358 58.8235 175.167 58.6965C174.975 58.5695 174.84 58.374 174.788 58.1499C174.763 58.0428 174.76 57.932 174.779 57.8237C174.798 57.7154 174.839 57.6121 174.899 57.5199C174.96 57.4278 175.037 57.3494 175.13 57.2884C175.221 57.2274 175.324 57.185 175.432 57.1651C176.283 56.9995 177.16 57.0257 178 57.2411C178.839 57.4552 179.621 57.8548 180.286 58.4076C182.562 60.2926 183.636 63.8047 183.465 68.8582C183.465 68.9702 183.443 69.0823 183.399 69.1856C183.356 69.2902 183.293 69.3836 183.213 69.4633C183.133 69.5429 183.039 69.6064 182.934 69.6488C182.831 69.6911 182.718 69.7135 182.606 69.7135Z" fill="#064E3B"/>
<path id="Vector_57" d="M245.662 170.454C245.435 170.454 245.216 170.365 245.055 170.204C244.894 170.043 244.803 169.826 244.803 169.598V157.262C244.803 157.036 244.894 156.818 245.055 156.657C245.216 156.497 245.435 156.406 245.662 156.406C245.777 156.399 245.892 156.418 245.998 156.458C246.105 156.499 246.203 156.563 246.284 156.643C246.365 156.724 246.427 156.82 246.469 156.927C246.51 157.034 246.527 157.149 246.521 157.262V169.598C246.527 169.712 246.51 169.827 246.469 169.933C246.427 170.04 246.365 170.137 246.284 170.218C246.203 170.299 246.105 170.361 245.998 170.402C245.892 170.443 245.777 170.461 245.662 170.454Z" fill="#ffffff"/>
<path id="Vector_58" d="M183.722 122.012C177.495 122.012 174.015 120.384 173.8 120.256C173.698 120.206 173.607 120.136 173.532 120.05C173.458 119.966 173.4 119.866 173.364 119.758C173.328 119.651 173.314 119.537 173.323 119.424C173.331 119.311 173.362 119.2 173.413 119.099C173.459 119 173.525 118.91 173.607 118.835C173.689 118.761 173.785 118.704 173.889 118.668C173.994 118.632 174.105 118.617 174.215 118.626C174.324 118.634 174.432 118.663 174.53 118.714C174.617 118.757 182.004 122.227 194.418 118.757C194.525 118.724 194.639 118.714 194.75 118.728C194.861 118.741 194.968 118.777 195.064 118.833C195.16 118.89 195.245 118.965 195.311 119.056C195.378 119.145 195.424 119.247 195.449 119.357C195.516 119.572 195.495 119.806 195.391 120.007C195.287 120.207 195.107 120.358 194.891 120.428C191.256 121.456 187.499 121.989 183.722 122.012Z" fill="#064E3B"/>
<path id="Vector_59" d="M184.667 127.366C178.139 127.366 174.143 124.624 173.886 124.454C173.704 124.317 173.583 124.114 173.55 123.889C173.519 123.665 173.578 123.435 173.714 123.254C173.775 123.162 173.852 123.083 173.945 123.022C174.036 122.961 174.14 122.92 174.248 122.9C174.357 122.88 174.468 122.881 174.575 122.906C174.683 122.93 174.784 122.976 174.874 123.04C174.96 123.083 182.691 128.394 194.16 123.682C194.371 123.609 194.604 123.616 194.81 123.703C195.017 123.79 195.183 123.951 195.276 124.154C195.363 124.364 195.36 124.598 195.271 124.807C195.183 125.017 195.016 125.181 194.805 125.267C191.601 126.635 188.153 127.349 184.667 127.366Z" fill="#064E3B"/>
<path id="Vector_60" d="M184.84 128.779C187.924 128.779 190.423 126.287 190.423 123.211C190.423 120.136 187.924 117.644 184.84 117.644C181.756 117.644 179.255 120.136 179.255 123.211C179.255 126.287 181.756 128.779 184.84 128.779Z" fill="#ffffff"/>
<path id="Vector_61" d="M184.84 129.636C183.565 129.636 182.319 129.26 181.26 128.554C180.2 127.848 179.375 126.844 178.887 125.67C178.4 124.496 178.271 123.204 178.52 121.958C178.769 120.711 179.382 119.567 180.284 118.668C181.184 117.77 182.333 117.158 183.582 116.91C184.832 116.663 186.128 116.79 187.306 117.275C188.483 117.762 189.489 118.585 190.197 119.642C190.905 120.699 191.282 121.94 191.282 123.211C191.282 124.056 191.116 124.891 190.792 125.67C190.468 126.45 189.994 127.158 189.396 127.754C188.798 128.351 188.087 128.824 187.306 129.148C186.524 129.47 185.685 129.636 184.84 129.636ZM184.84 118.543C183.903 118.543 182.988 118.82 182.21 119.339C181.432 119.86 180.827 120.598 180.47 121.461C180.114 122.325 180.023 123.274 180.209 124.189C180.395 125.104 180.849 125.944 181.514 126.6C182.179 127.258 183.024 127.703 183.945 127.88C184.863 128.057 185.815 127.957 186.678 127.595C187.54 127.232 188.275 126.621 188.789 125.841C189.303 125.06 189.573 124.145 189.564 123.211C189.564 122.595 189.442 121.984 189.203 121.415C188.966 120.846 188.618 120.329 188.178 119.895C187.739 119.46 187.217 119.118 186.644 118.886C186.071 118.653 185.458 118.536 184.84 118.543Z" fill="#064E3B"/>
<path id="Vector_62" d="M185.699 124.068H181.789C181.562 124.068 181.344 123.977 181.181 123.816C181.02 123.656 180.93 123.438 180.93 123.211C180.93 122.985 181.02 122.766 181.181 122.605C181.344 122.444 181.562 122.355 181.789 122.355H183.981V119.956C183.981 119.729 184.071 119.511 184.232 119.351C184.393 119.19 184.611 119.099 184.84 119.099C185.068 119.099 185.285 119.19 185.447 119.351C185.608 119.511 185.699 119.729 185.699 119.956V124.068Z" fill="#A7E203"/>
<path id="Vector_63" d="M67.7036 110.704C67.5538 110.707 67.4077 110.668 67.2779 110.592C67.1493 110.516 67.0432 110.406 66.9732 110.276C66.9121 110.181 66.8721 110.075 66.8546 109.965C66.8372 109.854 66.8421 109.74 66.8709 109.632C66.8996 109.524 66.9495 109.422 67.0194 109.333C67.0894 109.245 67.1755 109.173 67.2754 109.119C67.3178 109.077 71.2695 106.635 75.3935 100.682C75.5309 100.502 75.7306 100.38 75.9529 100.341C76.1751 100.301 76.4049 100.346 76.5959 100.468C76.6895 100.531 76.7694 100.613 76.8306 100.709C76.8918 100.804 76.9343 100.911 76.9542 101.023C76.9742 101.134 76.9717 101.248 76.9467 101.359C76.9218 101.47 76.8756 101.574 76.8106 101.667C72.4719 107.92 68.3055 110.49 68.1344 110.576C68.0083 110.663 67.8585 110.708 67.7049 110.704H67.7036Z" fill="#ffffff"/>
</g>
</svg>
