<svg preserveAspectRatio="none" overflow="visible" viewBox="0 0 198 44" fill="none" xmlns="http://www.w3.org/2000/svg">
<g id="Logo">
<g id="ativiza">
<path d="M84.5796 33.2869H76.6466V30.2835L72.7149 33.3559C72.251 33.54 71.6711 33.6321 70.9753 33.6321C68.7485 33.6321 67.1364 33.0913 66.139 32.0096C65.1647 30.9279 64.6776 29.6276 64.6776 28.1087C64.6776 27.2111 64.956 26.3366 65.5127 25.4851C66.0694 24.6105 66.8696 23.805 67.9134 23.0686H76.6466V22.4817C76.6466 21.2159 76.2987 20.2838 75.6028 19.6855C74.9069 19.0871 73.9791 18.7879 72.8193 18.7879C71.1956 18.7879 69.0732 19.4208 66.4521 20.6866L65.4083 18.7189L70.2446 14.8525C71.4276 14.5073 72.8077 14.3347 74.385 14.3347C76.983 14.3347 78.9894 14.9215 80.4043 16.0953C81.8425 17.269 82.5615 18.972 82.5615 21.2044V29.8348L85.6929 31.043L84.5796 33.2869ZM72.7497 29.0062C73.9327 29.0062 75.2317 28.5229 76.6466 27.5563V25.347H71.0449C70.8593 25.6231 70.7201 25.8878 70.6273 26.141C70.5577 26.3711 70.5229 26.6358 70.5229 26.935C70.5229 27.5103 70.7201 27.9936 71.1144 28.3849C71.532 28.7761 72.0771 28.9717 72.7497 28.9717V29.0062Z" fill="#064E3B"/>
<path d="M99.3682 33.3559C98.5795 33.54 97.6401 33.6321 96.5499 33.6321C94.3231 33.6321 92.6878 33.1373 91.644 32.1477C90.6234 31.1351 90.1131 29.5816 90.1131 27.4873V17.9939H86.3554V16.1643L93.836 8.0863H96.028V15.7155H102.291V17.9939H96.028V27.2456C96.028 28.8336 96.9326 29.6276 98.7419 29.6276C99.2058 29.6276 99.6581 29.5586 100.099 29.4205C100.563 29.2594 101.143 28.9947 101.839 28.6265L102.882 30.5942L99.3682 33.3559Z" fill="#064E3B"/>
<path d="M115.796 33.2869H104.802V31.3537L107.898 28.7646V20.7556L104.802 18.7189V16.7857L111.621 14.024H113.813V30.0074L116.945 31.043L115.796 33.2869ZM110.821 3.63304C111.818 3.63304 112.63 3.95524 113.257 4.59964C113.906 5.22102 114.231 6.00351 114.231 6.94709C114.231 7.6145 113.999 8.23589 113.535 8.81124C113.071 9.3866 112.491 9.84688 111.795 10.1921C111.099 10.5373 110.427 10.7099 109.777 10.7099C108.803 10.7099 107.991 10.3992 107.342 9.77784C106.715 9.13344 106.402 8.33945 106.402 7.39587C106.402 6.72845 106.634 6.10707 107.098 5.53172C107.562 4.95636 108.13 4.49607 108.803 4.15086C109.499 3.80565 110.171 3.63304 110.821 3.63304Z" fill="#064E3B"/>
<path d="M139.22 16.6131L130.312 33.2869H125.928L120.744 20.7902L117.369 18.857V16.9238L125.059 14.024L126.381 19.2367L130.173 28.4194L134.383 20.2723L129.408 16.9238L130.521 14.6799H139.22V16.6131Z" fill="#064E3B"/>
<path d="M151.066 33.2869H140.071V31.3537L143.168 28.7646V20.7556L140.071 18.7189V16.7857L146.89 14.024H149.082V30.0074L152.214 31.043L151.066 33.2869ZM146.09 3.63304C147.088 3.63304 147.9 3.95524 148.526 4.59964C149.175 5.22102 149.5 6.00351 149.5 6.94709C149.5 7.6145 149.268 8.23589 148.804 8.81124C148.34 9.3866 147.76 9.84688 147.064 10.1921C146.369 10.5373 145.696 10.7099 145.046 10.7099C144.072 10.7099 143.26 10.3992 142.611 9.77784C141.985 9.13344 141.671 8.33945 141.671 7.39587C141.671 6.72845 141.903 6.10707 142.367 5.53172C142.831 4.95636 143.4 4.49607 144.072 4.15086C144.768 3.80565 145.441 3.63304 146.09 3.63304Z" fill="#064E3B"/>
<path d="M169.305 27.4183L170.731 24.3804L172.645 24.9327V33.9083L169.861 33.2869H154.97V31.112L165.651 20.5485H158.588L157.266 23.2757L155.352 22.6888V14.0585L158.136 14.6799H173.028V16.8547L162.346 27.4183H169.305Z" fill="#064E3B"/>
<path d="M196.775 33.2869H188.842V30.2835L184.911 33.3559C184.447 33.54 183.867 33.6321 183.171 33.6321C180.944 33.6321 179.332 33.0913 178.335 32.0096C177.36 30.9279 176.873 29.6276 176.873 28.1087C176.873 27.2111 177.152 26.3366 177.708 25.4851C178.265 24.6105 179.065 23.805 180.109 23.0686H188.842V22.4817C188.842 21.2159 188.494 20.2838 187.799 19.6855C187.103 19.0871 186.175 18.7879 185.015 18.7879C183.391 18.7879 181.269 19.4208 178.648 20.6866L177.604 18.7189L182.44 14.8525C183.623 14.5073 185.003 14.3347 186.581 14.3347C189.179 14.3347 191.185 14.9215 192.6 16.0953C194.038 17.269 194.757 18.972 194.757 21.2044V29.8348L197.889 31.043L196.775 33.2869ZM184.945 29.0062C186.128 29.0062 187.427 28.5229 188.842 27.5563V25.347H183.241C183.055 25.6231 182.916 25.8878 182.823 26.141C182.753 26.3711 182.719 26.6358 182.719 26.935C182.719 27.5103 182.916 27.9936 183.31 28.3849C183.728 28.7761 184.273 28.9717 184.945 28.9717V29.0062Z" fill="#064E3B"/>
</g>
<g id="Group 2">
<path id="v" d="M0 39.4837L20.8983 0L31.1841 9.00462e-07L43.3476 29.5923L51.2661 34.1701V38.748L32.8991 44L30.1229 33.2709L21.2248 11.5263L11.3471 30.8185L20.1835 37.1099L19.3761 44H0.0164767L0 39.4837Z" fill="#064E3B"/>
<path id="Vector (Stroke)" d="M51.2661 12.6593C33.8859 12.6593 19.7963 26.6911 19.7963 44H14.3809L14.3763 43.6303C14.1794 35.8913 7.81831 29.6778 0 29.6778V21.0552C6.68446 21.0552 13.3211 26.6422 16.1793 32.637C18.9725 17.5596 34.8771 4.0367 51.2661 4.03669V12.6593Z" fill="#A7E203"/>
</g>
</g>
</svg>
